<mxGraphModel dx="0" dy="0" grid="1" gridSize="10" guides="1" tooltips="1" connect="1" arrows="1" fold="1" page="0" pageScale="1" background="none" math="0" shadow="0">
  <root>
    <mxCell id="0" />
    <mxCell id="1" parent="0" />
    <mxCell id="node10" parent="1" vertex="1" value="&lt;p style=&quot;margin:0px;margin-top:4px;text-align:center;&quot;&gt;&lt;b&gt;Base&lt;/b&gt;&lt;/p&gt;&lt;hr size=&quot;1&quot;/&gt;" style="verticalAlign=top;align=left;overflow=fill;fontSize=14;fontFamily=Helvetica;html=1;rounded=0;shadow=0;comic=0;labelBackgroundColor=none;strokeWidth=1;">
      <mxGeometry x="2981" y="886" width="72" height="30" as="geometry" />
    </mxCell>
    <mxCell id="node1" parent="1" vertex="1" value="&lt;p style=&quot;margin:0px;margin-top:4px;text-align:center;&quot;&gt;&lt;b&gt;FastAPIResponse&lt;/b&gt;&lt;/p&gt;&lt;hr size=&quot;1&quot;/&gt;" style="verticalAlign=top;align=left;overflow=fill;fontSize=14;fontFamily=Helvetica;html=1;rounded=0;shadow=0;comic=0;labelBackgroundColor=none;strokeWidth=1;">
      <mxGeometry x="-213" y="931" width="169" height="30" as="geometry" />
    </mxCell>
    <mxCell id="node25" parent="1" vertex="1" value="&lt;p style=&quot;margin:0px;margin-top:4px;text-align:center;&quot;&gt;&lt;b&gt;object&lt;/b&gt;&lt;/p&gt;&lt;hr size=&quot;1&quot;/&gt;&lt;p style=&quot;margin:0 0 0 4px;line-height:1.6;&quot;&gt; __doc__: &lt;br/&gt; __dict__: &lt;br/&gt; __slots__: &lt;br/&gt; __module__: &lt;br/&gt; __annotations__: &lt;/p&gt;&lt;hr size=&quot;1&quot;/&gt;&lt;p style=&quot;margin:0 0 0 4px;line-height:1.6;&quot;&gt; __class__(self: _T): &lt;br/&gt; __class__(self, __type: Type[object]): &lt;br/&gt; __init__(self): &lt;br/&gt; __new__(cls: Type[_T]): &lt;br/&gt; __setattr__(self, name: str, value: Any): &lt;br/&gt; __eq__(self, o: object): &lt;br/&gt; __ne__(self, o: object): &lt;br/&gt; __str__(self): &lt;br/&gt; __repr__(self): &lt;br/&gt; __hash__(self): &lt;br/&gt; __format__(self, format_spec: str): &lt;br/&gt; __getattribute__(self, name: str): &lt;br/&gt; __delattr__(self, name: str): &lt;br/&gt; __sizeof__(self): &lt;br/&gt; __reduce__(self): &lt;br/&gt; __reduce_ex__(self, protocol: SupportsIndex): &lt;br/&gt; __reduce_ex__(self, protocol: int): &lt;br/&gt; __dir__(self): &lt;br/&gt; __init_subclass__(cls): &lt;/p&gt;" style="verticalAlign=top;align=left;overflow=fill;fontSize=14;fontFamily=Helvetica;html=1;rounded=0;shadow=0;comic=0;labelBackgroundColor=none;strokeWidth=1;">
      <mxGeometry x="2193" y="-13" width="311" height="618" as="geometry" />
    </mxCell>
    <mxCell id="node13" parent="1" vertex="1" value="&lt;p style=&quot;margin:0px;margin-top:4px;text-align:center;&quot;&gt;&lt;b&gt;pydantic.main.BaseModel&lt;/b&gt;&lt;/p&gt;&lt;hr size=&quot;1&quot;/&gt;&lt;p style=&quot;margin:0 0 0 4px;line-height:1.6;&quot;&gt; Config: &lt;br/&gt; __slots__: &lt;br/&gt; __doc__: &lt;/p&gt;&lt;hr size=&quot;1&quot;/&gt;&lt;p style=&quot;margin:0 0 0 4px;line-height:1.6;&quot;&gt; __init__(__pydantic_self__, **data: Any): &lt;br/&gt; __setattr__(self, name, value): &lt;br/&gt; __getstate__(self): &lt;br/&gt; __setstate__(self, state: &amp;#39;DictAny&amp;#39;): &lt;br/&gt; _init_private_attributes(self): &lt;br/&gt; dict(         self,         *,         include: Optional[Union[&amp;#39;AbstractSetIntStr&amp;#39;, &amp;#39;MappingIntStrAny&amp;#39;]] = None,         exclude: Optional[Union[&amp;#39;AbstractSetIntStr&amp;#39;, &amp;#39;MappingIntStrAny&amp;#39;]] = None,         by_alias: bool = False,         skip_defaults: Optional[bool] = None,         exclude_unset: bool = False,         exclude_defaults: bool = False,         exclude_none: bool = False,     ): &lt;br/&gt; json(         self,         *,         include: Optional[Union[&amp;#39;AbstractSetIntStr&amp;#39;, &amp;#39;MappingIntStrAny&amp;#39;]] = None,         exclude: Optional[Union[&amp;#39;AbstractSetIntStr&amp;#39;, &amp;#39;MappingIntStrAny&amp;#39;]] = None,         by_alias: bool = False,         skip_defaults: Optional[bool] = None,         exclude_unset: bool = False,         exclude_defaults: bool = False,         exclude_none: bool = False,         encoder: Optional[Callable[[Any], Any]] = None,         models_as_dict: bool = True,         **dumps_kwargs: Any,     ): &lt;br/&gt; _enforce_dict_if_root(cls, obj: Any): &lt;br/&gt; parse_obj(cls: Type[&amp;#39;Model&amp;#39;], obj: Any): &lt;br/&gt; parse_raw(         cls: Type[&amp;#39;Model&amp;#39;],         b: StrBytes,         *,         content_type: str = None,         encoding: str = &amp;#39;utf8&amp;#39;,         proto: Protocol = None,         allow_pickle: bool = False,     ): &lt;br/&gt; parse_file(         cls: Type[&amp;#39;Model&amp;#39;],         path: Union[str, Path],         *,         content_type: str = None,         encoding: str = &amp;#39;utf8&amp;#39;,         proto: Protocol = None,         allow_pickle: bool = False,     ): &lt;br/&gt; from_orm(cls: Type[&amp;#39;Model&amp;#39;], obj: Any): &lt;br/&gt; construct(cls: Type[&amp;#39;Model&amp;#39;], _fields_set: Optional[&amp;#39;SetStr&amp;#39;] = None, **values: Any): &lt;br/&gt; _copy_and_set_values(self: &amp;#39;Model&amp;#39;, values: &amp;#39;DictStrAny&amp;#39;, fields_set: &amp;#39;SetStr&amp;#39;, *, deep: bool): &lt;br/&gt; copy(         self: &amp;#39;Model&amp;#39;,         *,         include: Optional[Union[&amp;#39;AbstractSetIntStr&amp;#39;, &amp;#39;MappingIntStrAny&amp;#39;]] = None,         exclude: Optional[Union[&amp;#39;AbstractSetIntStr&amp;#39;, &amp;#39;MappingIntStrAny&amp;#39;]] = None,         update: Optional[&amp;#39;DictStrAny&amp;#39;] = None,         deep: bool = False,     ): &lt;br/&gt; schema(cls, by_alias: bool = True, ref_template: str = default_ref_template): &lt;br/&gt; schema_json(         cls, *, by_alias: bool = True, ref_template: str = default_ref_template, **dumps_kwargs: Any     ): &lt;br/&gt; __get_validators__(cls): &lt;br/&gt; validate(cls: Type[&amp;#39;Model&amp;#39;], value: Any): &lt;br/&gt; _decompose_class(cls: Type[&amp;#39;Model&amp;#39;], obj: Any): &lt;br/&gt; _get_value(         cls,         v: Any,         to_dict: bool,         by_alias: bool,         include: Optional[Union[&amp;#39;AbstractSetIntStr&amp;#39;, &amp;#39;MappingIntStrAny&amp;#39;]],         exclude: Optional[Union[&amp;#39;AbstractSetIntStr&amp;#39;, &amp;#39;MappingIntStrAny&amp;#39;]],         exclude_unset: bool,         exclude_defaults: bool,         exclude_none: bool,     ): &lt;br/&gt; __try_update_forward_refs__(cls, **localns: Any): &lt;br/&gt; update_forward_refs(cls, **localns: Any): &lt;br/&gt; __iter__(self): &lt;br/&gt; _iter(         self,         to_dict: bool = False,         by_alias: bool = False,         include: Optional[Union[&amp;#39;AbstractSetIntStr&amp;#39;, &amp;#39;MappingIntStrAny&amp;#39;]] = None,         exclude: Optional[Union[&amp;#39;AbstractSetIntStr&amp;#39;, &amp;#39;MappingIntStrAny&amp;#39;]] = None,         exclude_unset: bool = False,         exclude_defaults: bool = False,         exclude_none: bool = False,     ): &lt;br/&gt; _calculate_keys(         self,         include: Optional[&amp;#39;MappingIntStrAny&amp;#39;],         exclude: Optional[&amp;#39;MappingIntStrAny&amp;#39;],         exclude_unset: bool,         update: Optional[&amp;#39;DictStrAny&amp;#39;] = None,     ): &lt;br/&gt; __eq__(self, other: Any): &lt;br/&gt; __repr_args__(self): &lt;/p&gt;" style="verticalAlign=top;align=left;overflow=fill;fontSize=14;fontFamily=Helvetica;html=1;rounded=0;shadow=0;comic=0;labelBackgroundColor=none;strokeWidth=1;">
      <mxGeometry x="4498" y="1031" width="390" height="786" as="geometry" />
    </mxCell>
    <mxCell id="node2" parent="1" vertex="1" value="&lt;p style=&quot;margin:0px;margin-top:4px;text-align:center;&quot;&gt;&lt;b&gt;pydantic.main.ModelMetaclass&lt;/b&gt;&lt;/p&gt;&lt;hr size=&quot;1&quot;/&gt;&lt;p style=&quot;margin:0 0 0 4px;line-height:1.6;&quot;&gt; config_kwargs: &lt;br/&gt; resolve_forward_refs: &lt;br/&gt; validators: &lt;br/&gt; allowed_config_kwargs: &lt;br/&gt; annotations: &lt;br/&gt; json_encoder: &lt;br/&gt; can_be_changed: &lt;br/&gt; pre_rv_new: &lt;br/&gt; set_name: &lt;br/&gt; allowed_types: &lt;br/&gt; config_from_namespace: &lt;br/&gt; inferred: &lt;br/&gt; pre_root_validators: &lt;br/&gt; value: &lt;br/&gt; class_vars: &lt;br/&gt; extra_validators: &lt;br/&gt; exclude_from_namespace: &lt;br/&gt; private_attributes: &lt;br/&gt; base_private_attributes: &lt;br/&gt; new_namespace: &lt;br/&gt; cls: &lt;br/&gt; untouched_types: &lt;br/&gt; vg: &lt;br/&gt; slots: &lt;br/&gt; post_rv_new: &lt;br/&gt; post_root_validators: &lt;br/&gt; hash_func: &lt;br/&gt; fields: &lt;br/&gt; config: &lt;br/&gt; _custom_root_type: &lt;br/&gt; type_: &lt;br/&gt; __signature__: &lt;/p&gt;&lt;hr size=&quot;1&quot;/&gt;&lt;p style=&quot;margin:0 0 0 4px;line-height:1.6;&quot;&gt; __new__(mcs, name, bases, namespace, **kwargs): &lt;br/&gt; __instancecheck__(self, instance: Any): &lt;/p&gt;" style="verticalAlign=top;align=left;overflow=fill;fontSize=14;fontFamily=Helvetica;html=1;rounded=0;shadow=0;comic=0;labelBackgroundColor=none;strokeWidth=1;">
      <mxGeometry x="4982" y="498" width="349" height="858" as="geometry" />
    </mxCell>
    <mxCell id="node0" parent="1" vertex="1" value="&lt;p style=&quot;margin:0px;margin-top:4px;text-align:center;&quot;&gt;&lt;b&gt;pydantic.utils.Representation&lt;/b&gt;&lt;/p&gt;&lt;hr size=&quot;1&quot;/&gt;&lt;p style=&quot;margin:0 0 0 4px;line-height:1.6;&quot;&gt; __slots__: &lt;/p&gt;&lt;hr size=&quot;1&quot;/&gt;&lt;p style=&quot;margin:0 0 0 4px;line-height:1.6;&quot;&gt; __repr_args__(self): &lt;br/&gt; __repr_name__(self): &lt;br/&gt; __repr_str__(self, join_str: str): &lt;br/&gt; __pretty__(self, fmt: Callable[[Any], Any], **kwargs: Any): &lt;br/&gt; __str__(self): &lt;br/&gt; __repr__(self): &lt;br/&gt; __rich_repr__(self): &lt;/p&gt;" style="verticalAlign=top;align=left;overflow=fill;fontSize=14;fontFamily=Helvetica;html=1;rounded=0;shadow=0;comic=0;labelBackgroundColor=none;strokeWidth=1;">
      <mxGeometry x="4265" y="284" width="379" height="234" as="geometry" />
    </mxCell>
    <mxCell id="node15" parent="1" vertex="1" value="&lt;p style=&quot;margin:0px;margin-top:4px;text-align:center;&quot;&gt;&lt;b&gt;python.commons.messages.Message&lt;/b&gt;&lt;/p&gt;&lt;hr size=&quot;1&quot;/&gt;&lt;p style=&quot;margin:0 0 0 4px;line-height:1.6;&quot;&gt; found: &lt;/p&gt;" style="verticalAlign=top;align=left;overflow=fill;fontSize=14;fontFamily=Helvetica;html=1;rounded=0;shadow=0;comic=0;labelBackgroundColor=none;strokeWidth=1;">
      <mxGeometry x="819" y="806" width="324" height="68" as="geometry" />
    </mxCell>
    <mxCell id="node8" parent="1" vertex="1" value="&lt;p style=&quot;margin:0px;margin-top:4px;text-align:center;&quot;&gt;&lt;b&gt;python.commons.request_api.RequestApi&lt;/b&gt;&lt;/p&gt;&lt;hr size=&quot;1&quot;/&gt;&lt;p style=&quot;margin:0 0 0 4px;line-height:1.6;&quot;&gt; get(cls, url: str, headers, payload: json): &lt;br/&gt; post(cls, url: str, payload: json): &lt;/p&gt;" style="verticalAlign=top;align=left;overflow=fill;fontSize=14;fontFamily=Helvetica;html=1;rounded=0;shadow=0;comic=0;labelBackgroundColor=none;strokeWidth=1;">
      <mxGeometry x="-57" y="696" width="355" height="94" as="geometry" />
    </mxCell>
    <mxCell id="node28" parent="1" vertex="1" value="&lt;p style=&quot;margin:0px;margin-top:4px;text-align:center;&quot;&gt;&lt;b&gt;python.commons.response.UJSONResponse&lt;/b&gt;&lt;/p&gt;&lt;hr size=&quot;1&quot;/&gt;&lt;p style=&quot;margin:0 0 0 4px;line-height:1.6;&quot;&gt; __init__(             self,             message: str,             status_code: int,             data: Optional[Union[dict, List[dict]]] = None     ): &lt;/p&gt;" style="verticalAlign=top;align=left;overflow=fill;fontSize=14;fontFamily=Helvetica;html=1;rounded=0;shadow=0;comic=0;labelBackgroundColor=none;strokeWidth=1;">
      <mxGeometry x="391" y="934" width="380" height="68" as="geometry" />
    </mxCell>
    <mxCell id="node22" parent="1" vertex="1" value="&lt;p style=&quot;margin:0px;margin-top:4px;text-align:center;&quot;&gt;&lt;b&gt;python.db.database.Database&lt;/b&gt;&lt;/p&gt;&lt;hr size=&quot;1&quot;/&gt;&lt;p style=&quot;margin:0 0 0 4px;line-height:1.6;&quot;&gt; connection(): &lt;/p&gt;" style="verticalAlign=top;align=left;overflow=fill;fontSize=14;fontFamily=Helvetica;html=1;rounded=0;shadow=0;comic=0;labelBackgroundColor=none;strokeWidth=1;">
      <mxGeometry x="4026" y="636" width="267" height="68" as="geometry" />
    </mxCell>
    <mxCell id="node27" parent="1" vertex="1" value="&lt;p style=&quot;margin:0px;margin-top:4px;text-align:center;&quot;&gt;&lt;b&gt;python.db.execute_query.ExecuteQuery&lt;/b&gt;&lt;/p&gt;&lt;hr size=&quot;1&quot;/&gt;&lt;p style=&quot;margin:0 0 0 4px;line-height:1.6;&quot;&gt; engine: &lt;/p&gt;&lt;hr size=&quot;1&quot;/&gt;&lt;p style=&quot;margin:0 0 0 4px;line-height:1.6;&quot;&gt; select(cls, query): &lt;br/&gt; insert(cls, query, data): &lt;/p&gt;" style="verticalAlign=top;align=left;overflow=fill;fontSize=14;fontFamily=Helvetica;html=1;rounded=0;shadow=0;comic=0;labelBackgroundColor=none;strokeWidth=1;">
      <mxGeometry x="2037" y="685" width="345" height="123" as="geometry" />
    </mxCell>
    <mxCell id="node24" parent="1" vertex="1" value="&lt;p style=&quot;margin:0px;margin-top:4px;text-align:center;&quot;&gt;&lt;b&gt;python.db.queries.country_queries.CountryQueries&lt;/b&gt;&lt;/p&gt;&lt;hr size=&quot;1&quot;/&gt;&lt;p style=&quot;margin:0 0 0 4px;line-height:1.6;&quot;&gt; engine: &lt;/p&gt;&lt;hr size=&quot;1&quot;/&gt;&lt;p style=&quot;margin:0 0 0 4px;line-height:1.6;&quot;&gt; get_all_countries(cls): &lt;br/&gt; get_all_state(cls): &lt;br/&gt; get_all_city(cls): &lt;br/&gt; get_city_by_name(cls, name): &lt;/p&gt;" style="verticalAlign=top;align=left;overflow=fill;fontSize=14;fontFamily=Helvetica;html=1;rounded=0;shadow=0;comic=0;labelBackgroundColor=none;strokeWidth=1;">
      <mxGeometry x="3368" y="1042" width="429" height="162" as="geometry" />
    </mxCell>
    <mxCell id="node12" parent="1" vertex="1" value="&lt;p style=&quot;margin:0px;margin-top:4px;text-align:center;&quot;&gt;&lt;b&gt;python.middlewares.error_handler.ErrorHandler&lt;/b&gt;&lt;/p&gt;&lt;hr size=&quot;1&quot;/&gt;&lt;p style=&quot;margin:0 0 0 4px;line-height:1.6;&quot;&gt; __init__(self, app: FastAPI): &lt;br/&gt; dispatch(self, request: Request, call_next): &lt;/p&gt;" style="verticalAlign=top;align=left;overflow=fill;fontSize=14;fontFamily=Helvetica;html=1;rounded=0;shadow=0;comic=0;labelBackgroundColor=none;strokeWidth=1;">
      <mxGeometry x="358" y="785" width="400" height="94" as="geometry" />
    </mxCell>
    <mxCell id="node11" parent="1" vertex="1" value="&lt;p style=&quot;margin:0px;margin-top:4px;text-align:center;&quot;&gt;&lt;b&gt;python.models.city.City&lt;/b&gt;&lt;/p&gt;&lt;hr size=&quot;1&quot;/&gt;&lt;p style=&quot;margin:0 0 0 4px;line-height:1.6;&quot;&gt; __tablename__: &lt;br/&gt; id: &lt;br/&gt; name: &lt;br/&gt; country_id: &lt;/p&gt;" style="verticalAlign=top;align=left;overflow=fill;fontSize=14;fontFamily=Helvetica;html=1;rounded=0;shadow=0;comic=0;labelBackgroundColor=none;strokeWidth=1;">
      <mxGeometry x="2685" y="728" width="218" height="146" as="geometry" />
    </mxCell>
    <mxCell id="node19" parent="1" vertex="1" value="&lt;p style=&quot;margin:0px;margin-top:4px;text-align:center;&quot;&gt;&lt;b&gt;python.models.country.Country&lt;/b&gt;&lt;/p&gt;&lt;hr size=&quot;1&quot;/&gt;&lt;p style=&quot;margin:0 0 0 4px;line-height:1.6;&quot;&gt; __tablename__: &lt;br/&gt; id: &lt;br/&gt; name: &lt;/p&gt;" style="verticalAlign=top;align=left;overflow=fill;fontSize=14;fontFamily=Helvetica;html=1;rounded=0;shadow=0;comic=0;labelBackgroundColor=none;strokeWidth=1;">
      <mxGeometry x="3649" y="821" width="279" height="120" as="geometry" />
    </mxCell>
    <mxCell id="node17" parent="1" vertex="1" value="&lt;p style=&quot;margin:0px;margin-top:4px;text-align:center;&quot;&gt;&lt;b&gt;python.models.education_level.EducationLevel&lt;/b&gt;&lt;/p&gt;&lt;hr size=&quot;1&quot;/&gt;&lt;p style=&quot;margin:0 0 0 4px;line-height:1.6;&quot;&gt; __tablename__: &lt;br/&gt; id: &lt;br/&gt; name: &lt;/p&gt;" style="verticalAlign=top;align=left;overflow=fill;fontSize=14;fontFamily=Helvetica;html=1;rounded=0;shadow=0;comic=0;labelBackgroundColor=none;strokeWidth=1;">
      <mxGeometry x="4014" y="795" width="395" height="120" as="geometry" />
    </mxCell>
    <mxCell id="node6" parent="1" vertex="1" value="&lt;p style=&quot;margin:0px;margin-top:4px;text-align:center;&quot;&gt;&lt;b&gt;python.models.gender.Gender&lt;/b&gt;&lt;/p&gt;&lt;hr size=&quot;1&quot;/&gt;&lt;p style=&quot;margin:0 0 0 4px;line-height:1.6;&quot;&gt; __tablename__: &lt;br/&gt; id: &lt;br/&gt; name: &lt;/p&gt;" style="verticalAlign=top;align=left;overflow=fill;fontSize=14;fontFamily=Helvetica;html=1;rounded=0;shadow=0;comic=0;labelBackgroundColor=none;strokeWidth=1;">
      <mxGeometry x="1994" y="890" width="270" height="120" as="geometry" />
    </mxCell>
    <mxCell id="node4" parent="1" vertex="1" value="&lt;p style=&quot;margin:0px;margin-top:4px;text-align:center;&quot;&gt;&lt;b&gt;python.models.marital_status.MaritalStatus&lt;/b&gt;&lt;/p&gt;&lt;hr size=&quot;1&quot;/&gt;&lt;p style=&quot;margin:0 0 0 4px;line-height:1.6;&quot;&gt; __tablename__: &lt;br/&gt; id: &lt;br/&gt; name: &lt;/p&gt;" style="verticalAlign=top;align=left;overflow=fill;fontSize=14;fontFamily=Helvetica;html=1;rounded=0;shadow=0;comic=0;labelBackgroundColor=none;strokeWidth=1;">
      <mxGeometry x="2922" y="1060" width="368" height="120" as="geometry" />
    </mxCell>
    <mxCell id="node3" parent="1" vertex="1" value="&lt;p style=&quot;margin:0px;margin-top:4px;text-align:center;&quot;&gt;&lt;b&gt;python.models.occupation.Occupation&lt;/b&gt;&lt;/p&gt;&lt;hr size=&quot;1&quot;/&gt;&lt;p style=&quot;margin:0 0 0 4px;line-height:1.6;&quot;&gt; __tablename__: &lt;br/&gt; id: &lt;br/&gt; name: &lt;/p&gt;" style="verticalAlign=top;align=left;overflow=fill;fontSize=14;fontFamily=Helvetica;html=1;rounded=0;shadow=0;comic=0;labelBackgroundColor=none;strokeWidth=1;">
      <mxGeometry x="1601" y="942" width="332" height="120" as="geometry" />
    </mxCell>
    <mxCell id="node21" parent="1" vertex="1" value="&lt;p style=&quot;margin:0px;margin-top:4px;text-align:center;&quot;&gt;&lt;b&gt;python.models.person.Person&lt;/b&gt;&lt;/p&gt;&lt;hr size=&quot;1&quot;/&gt;&lt;p style=&quot;margin:0 0 0 4px;line-height:1.6;&quot;&gt; first_name: &lt;br/&gt; last_name: &lt;br/&gt; middle_name: &lt;br/&gt; date_of_birth: &lt;br/&gt; gender_id: &lt;br/&gt; nationality: &lt;br/&gt; current_occupation: &lt;br/&gt; current_income: &lt;br/&gt; marital_status: &lt;br/&gt; num_children: &lt;br/&gt; education_level: &lt;br/&gt; email: &lt;br/&gt; phone: &lt;br/&gt; notes: &lt;/p&gt;" style="verticalAlign=top;align=left;overflow=fill;fontSize=14;fontFamily=Helvetica;html=1;rounded=0;shadow=0;comic=0;labelBackgroundColor=none;strokeWidth=1;">
      <mxGeometry x="4657" y="579" width="265" height="375" as="geometry" />
    </mxCell>
    <mxCell id="node18" parent="1" vertex="1" value="&lt;p style=&quot;margin:0px;margin-top:4px;text-align:center;&quot;&gt;&lt;b&gt;python.services.cities.Cities&lt;/b&gt;&lt;/p&gt;&lt;hr size=&quot;1&quot;/&gt;&lt;p style=&quot;margin:0 0 0 4px;line-height:1.6;&quot;&gt; db: &lt;/p&gt;&lt;hr size=&quot;1&quot;/&gt;&lt;p style=&quot;margin:0 0 0 4px;line-height:1.6;&quot;&gt; __init__(self, db): &lt;br/&gt; get_cities_by_country_id(self, country_id: int): &lt;br/&gt; post_city(self, city: City): &lt;/p&gt;" style="verticalAlign=top;align=left;overflow=fill;fontSize=14;fontFamily=Helvetica;html=1;rounded=0;shadow=0;comic=0;labelBackgroundColor=none;strokeWidth=1;">
      <mxGeometry x="2552" y="925" width="310" height="149" as="geometry" />
    </mxCell>
    <mxCell id="node9" parent="1" vertex="1" value="&lt;p style=&quot;margin:0px;margin-top:4px;text-align:center;&quot;&gt;&lt;b&gt;python.services.countries.Countries&lt;/b&gt;&lt;/p&gt;&lt;hr size=&quot;1&quot;/&gt;&lt;p style=&quot;margin:0 0 0 4px;line-height:1.6;&quot;&gt; db: &lt;/p&gt;&lt;hr size=&quot;1&quot;/&gt;&lt;p style=&quot;margin:0 0 0 4px;line-height:1.6;&quot;&gt; __init__(self, db): &lt;br/&gt; get_countries(self): &lt;/p&gt;" style="verticalAlign=top;align=left;overflow=fill;fontSize=14;fontFamily=Helvetica;html=1;rounded=0;shadow=0;comic=0;labelBackgroundColor=none;strokeWidth=1;">
      <mxGeometry x="3876" y="1005" width="313" height="123" as="geometry" />
    </mxCell>
    <mxCell id="node5" parent="1" vertex="1" value="&lt;p style=&quot;margin:0px;margin-top:4px;text-align:center;&quot;&gt;&lt;b&gt;python.services.person_controller.PersonController&lt;/b&gt;&lt;/p&gt;&lt;hr size=&quot;1&quot;/&gt;&lt;p style=&quot;margin:0 0 0 4px;line-height:1.6;&quot;&gt; get_person_by_id(cls, person_id: int): &lt;br/&gt; insert_person(cls, person: Person): &lt;br/&gt; update_person(cls, person_id: int, person: Person): &lt;br/&gt; delete_person(cls, person_id: int): &lt;/p&gt;" style="verticalAlign=top;align=left;overflow=fill;fontSize=14;fontFamily=Helvetica;html=1;rounded=0;shadow=0;comic=0;labelBackgroundColor=none;strokeWidth=1;">
      <mxGeometry x="2673" y="531" width="430" height="146" as="geometry" />
    </mxCell>
    <mxCell id="node23" parent="1" vertex="1" value="&lt;p style=&quot;margin:0px;margin-top:4px;text-align:center;&quot;&gt;&lt;b&gt;src.python.services.create_data.CreateData&lt;/b&gt;&lt;/p&gt;&lt;hr size=&quot;1&quot;/&gt;&lt;p style=&quot;margin:0 0 0 4px;line-height:1.6;&quot;&gt; __url: &lt;br/&gt; __url_home: &lt;br/&gt; __url_person: &lt;br/&gt; __headers: &lt;/p&gt;&lt;hr size=&quot;1&quot;/&gt;&lt;p style=&quot;margin:0 0 0 4px;line-height:1.6;&quot;&gt; get_country(cls): &lt;br/&gt; insert_country(cls): &lt;br/&gt; insert_state(cls): &lt;br/&gt; insert_city(cls): &lt;br/&gt; insert_home(cls, number_of_items: int): &lt;br/&gt; insert_person(cls): &lt;/p&gt;" style="verticalAlign=top;align=left;overflow=fill;fontSize=14;fontFamily=Helvetica;html=1;rounded=0;shadow=0;comic=0;labelBackgroundColor=none;strokeWidth=1;">
      <mxGeometry x="3212" y="652" width="373" height="282" as="geometry" />
    </mxCell>
    <mxCell id="node26" parent="1" vertex="1" value="&lt;p style=&quot;margin:0px;margin-top:4px;text-align:center;&quot;&gt;&lt;b&gt;starlette.middleware.base.BaseHTTPMiddleware&lt;/b&gt;&lt;/p&gt;&lt;hr size=&quot;1&quot;/&gt;&lt;p style=&quot;margin:0 0 0 4px;line-height:1.6;&quot;&gt; app: &lt;br/&gt; dispatch_func: &lt;/p&gt;&lt;hr size=&quot;1&quot;/&gt;&lt;p style=&quot;margin:0 0 0 4px;line-height:1.6;&quot;&gt; __init__(         self, app: ASGIApp, dispatch: typing.Optional[DispatchFunction] = None     ): &lt;br/&gt; __call__(self, scope: Scope, receive: Receive, send: Send): &lt;br/&gt; dispatch(         self, request: Request, call_next: RequestResponseEndpoint     ): &lt;/p&gt;" style="verticalAlign=top;align=left;overflow=fill;fontSize=14;fontFamily=Helvetica;html=1;rounded=0;shadow=0;comic=0;labelBackgroundColor=none;strokeWidth=1;">
      <mxGeometry x="395" y="562" width="411" height="162" as="geometry" />
    </mxCell>
    <mxCell id="node16" parent="1" vertex="1" value="&lt;p style=&quot;margin:0px;margin-top:4px;text-align:center;&quot;&gt;&lt;b&gt;starlette.responses.JSONResponse&lt;/b&gt;&lt;/p&gt;&lt;hr size=&quot;1&quot;/&gt;&lt;p style=&quot;margin:0 0 0 4px;line-height:1.6;&quot;&gt; media_type: &lt;/p&gt;&lt;hr size=&quot;1&quot;/&gt;&lt;p style=&quot;margin:0 0 0 4px;line-height:1.6;&quot;&gt; __init__(         self,         content: typing.Any,         status_code: int = 200,         headers: typing.Optional[typing.Dict[str, str]] = None,         media_type: typing.Optional[str] = None,         background: typing.Optional[BackgroundTask] = None,     ): &lt;br/&gt; render(self, content: typing.Any): &lt;/p&gt;" style="verticalAlign=top;align=left;overflow=fill;fontSize=14;fontFamily=Helvetica;html=1;rounded=0;shadow=0;comic=0;labelBackgroundColor=none;strokeWidth=1;">
      <mxGeometry x="1203" y="872" width="337" height="123" as="geometry" />
    </mxCell>
    <mxCell id="node14" parent="1" vertex="1" value="&lt;p style=&quot;margin:0px;margin-top:4px;text-align:center;&quot;&gt;&lt;b&gt;starlette.responses.Response&lt;/b&gt;&lt;/p&gt;&lt;hr size=&quot;1&quot;/&gt;&lt;p style=&quot;margin:0 0 0 4px;line-height:1.6;&quot;&gt; _headers: &lt;br/&gt; status_code: &lt;br/&gt; media_type: &lt;br/&gt; background: &lt;br/&gt; body: &lt;br/&gt; raw_headers: &lt;br/&gt; media_type: &lt;br/&gt; charset: &lt;/p&gt;&lt;hr size=&quot;1&quot;/&gt;&lt;p style=&quot;margin:0 0 0 4px;line-height:1.6;&quot;&gt; __init__(         self,         content: typing.Any = None,         status_code: int = 200,         headers: typing.Optional[typing.Mapping[str, str]] = None,         media_type: typing.Optional[str] = None,         background: typing.Optional[BackgroundTask] = None,     ): &lt;br/&gt; render(self, content: typing.Any): &lt;br/&gt; init_headers(         self, headers: typing.Optional[typing.Mapping[str, str]] = None     ): &lt;br/&gt; headers(self): &lt;br/&gt; set_cookie(         self,         key: str,         value: str = &amp;quot;&amp;quot;,         max_age: typing.Optional[int] = None,         expires: typing.Optional[typing.Union[datetime, str, int]] = None,         path: str = &amp;quot;/&amp;quot;,         domain: typing.Optional[str] = None,         secure: bool = False,         httponly: bool = False,         samesite: typing.Optional[Literal[&amp;quot;lax&amp;quot;, &amp;quot;strict&amp;quot;, &amp;quot;none&amp;quot;]] = &amp;quot;lax&amp;quot;,     ): &lt;br/&gt; delete_cookie(         self,         key: str,         path: str = &amp;quot;/&amp;quot;,         domain: typing.Optional[str] = None,         secure: bool = False,         httponly: bool = False,         samesite: typing.Optional[Literal[&amp;quot;lax&amp;quot;, &amp;quot;strict&amp;quot;, &amp;quot;none&amp;quot;]] = &amp;quot;lax&amp;quot;,     ): &lt;br/&gt; __call__(self, scope: Scope, receive: Receive, send: Send): &lt;/p&gt;" style="verticalAlign=top;align=left;overflow=fill;fontSize=14;fontFamily=Helvetica;html=1;rounded=0;shadow=0;comic=0;labelBackgroundColor=none;strokeWidth=1;">
      <mxGeometry x="1231" y="408" width="387" height="402" as="geometry" />
    </mxCell>
    <mxCell id="node7" parent="1" vertex="1" value="&lt;p style=&quot;margin:0px;margin-top:4px;text-align:center;&quot;&gt;&lt;b&gt;typing.Hashable&lt;/b&gt;&lt;/p&gt;&lt;hr size=&quot;1&quot;/&gt;&lt;p style=&quot;margin:0 0 0 4px;line-height:1.6;&quot;&gt; __hash__(self): &lt;/p&gt;" style="verticalAlign=top;align=left;overflow=fill;fontSize=14;fontFamily=Helvetica;html=1;rounded=0;shadow=0;comic=0;labelBackgroundColor=none;strokeWidth=1;">
      <mxGeometry x="2451" y="665" width="161" height="68" as="geometry" />
    </mxCell>
    <mxCell id="node20" parent="1" vertex="1" value="&lt;p style=&quot;margin:0px;margin-top:4px;text-align:center;&quot;&gt;&lt;b&gt;typing.Iterable&lt;/b&gt;&lt;/p&gt;&lt;hr size=&quot;1&quot;/&gt;&lt;p style=&quot;margin:0 0 0 4px;line-height:1.6;&quot;&gt; __iter__(self): &lt;/p&gt;" style="verticalAlign=top;align=left;overflow=fill;fontSize=14;fontFamily=Helvetica;html=1;rounded=0;shadow=0;comic=0;labelBackgroundColor=none;strokeWidth=1;">
      <mxGeometry x="4772" y="427" width="148" height="68" as="geometry" />
    </mxCell>
    <mxCell id="edge34" edge="1" value="" parent="1" source="node10" target="node25" style="html=1;rounded=1;edgeStyle=orthogonalEdgeStyle;dashed=0;startArrow=block;startSize=12;endArrow=none;strokeColor=#595959;exitX=0.001;exitY=0.500;exitDx=0;exitDy=0;entryX=0.500;entryY=0.000;entryDx=0;entryDy=0;">
      <mxGeometry width="50" height="50" relative="1" as="geometry">
        <Array as="points">
          <mxPoint x="2943" y="900" />
          <mxPoint x="2943" y="864" />
          <mxPoint x="3158" y="864" />
          <mxPoint x="3158" y="-35" />
          <mxPoint x="2348" y="-35" />
        </Array>
      </mxGeometry>
    </mxCell>
    <mxCell id="edge9" edge="1" value="" parent="1" source="node1" target="node25" style="html=1;rounded=1;edgeStyle=orthogonalEdgeStyle;dashed=0;startArrow=block;startSize=12;endArrow=none;strokeColor=#595959;exitX=0.500;exitY=1.000;exitDx=0;exitDy=0;entryX=0.500;entryY=0.000;entryDx=0;entryDy=0;">
      <mxGeometry width="50" height="50" relative="1" as="geometry">
        <Array as="points">
          <mxPoint x="-129" y="1132" />
          <mxPoint x="2879" y="1132" />
          <mxPoint x="2879" y="932" />
          <mxPoint x="2943" y="932" />
          <mxPoint x="2943" y="864" />
          <mxPoint x="3158" y="864" />
          <mxPoint x="3158" y="-35" />
          <mxPoint x="2348" y="-35" />
        </Array>
      </mxGeometry>
    </mxCell>
    <mxCell id="edge17" edge="1" value="" parent="1" source="node25" target="node7" style="html=1;rounded=1;edgeStyle=orthogonalEdgeStyle;dashed=1;startArrow=block;startSize=12;endArrow=none;strokeColor=#595959;exitX=0.976;exitY=1.000;exitDx=0;exitDy=0;entryX=0.277;entryY=0.000;entryDx=0;entryDy=0;">
      <mxGeometry width="50" height="50" relative="1" as="geometry">
        <Array as="points" />
      </mxGeometry>
    </mxCell>
    <mxCell id="edge15" edge="1" value="" parent="1" source="node13" target="node2" style="html=1;rounded=1;edgeStyle=orthogonalEdgeStyle;dashed=1;startArrow=classic;startSize=12;endArrow=none;strokeColor=#595959;exitX=1.000;exitY=0.405;exitDx=0;exitDy=0;entryX=0.000;entryY=0.991;entryDx=0;entryDy=0;">
      <mxGeometry width="50" height="50" relative="1" as="geometry">
        <Array as="points" />
      </mxGeometry>
    </mxCell>
    <mxCell id="label94" parent="edge15" vertex="1" connectable="0" value="isinstanceof" style="edgeLabel;resizable=0;html=1;align=left;verticalAlign=top;strokeColor=default;">
      <mxGeometry x="4906" y="1303" as="geometry" />
    </mxCell>
    <mxCell id="edge32" edge="1" value="" parent="1" source="node13" target="node0" style="html=1;rounded=1;edgeStyle=orthogonalEdgeStyle;dashed=0;startArrow=block;startSize=12;endArrow=none;strokeColor=#595959;exitX=0.019;exitY=0.000;exitDx=0;exitDy=0;entryX=0.634;entryY=1.000;entryDx=0;entryDy=0;">
      <mxGeometry width="50" height="50" relative="1" as="geometry">
        <Array as="points" />
      </mxGeometry>
    </mxCell>
    <mxCell id="edge23" edge="1" value="" parent="1" source="node13" target="node20" style="html=1;rounded=1;edgeStyle=orthogonalEdgeStyle;dashed=1;startArrow=block;startSize=12;endArrow=none;strokeColor=#595959;exitX=1.000;exitY=0.500;exitDx=0;exitDy=0;entryX=1.000;entryY=0.500;entryDx=0;entryDy=0;">
      <mxGeometry width="50" height="50" relative="1" as="geometry">
        <Array as="points">
          <mxPoint x="5349" y="1424" />
          <mxPoint x="5349" y="459" />
        </Array>
      </mxGeometry>
    </mxCell>
    <mxCell id="edge27" edge="1" value="" parent="1" source="node0" target="node25" style="html=1;rounded=1;edgeStyle=orthogonalEdgeStyle;dashed=0;startArrow=block;startSize=12;endArrow=none;strokeColor=#595959;exitX=0.500;exitY=0.000;exitDx=0;exitDy=0;entryX=0.500;entryY=0.000;entryDx=0;entryDy=0;">
      <mxGeometry width="50" height="50" relative="1" as="geometry">
        <Array as="points">
          <mxPoint x="4454" y="-35" />
          <mxPoint x="2348" y="-35" />
        </Array>
      </mxGeometry>
    </mxCell>
    <mxCell id="edge18" edge="1" value="" parent="1" source="node15" target="node25" style="html=1;rounded=1;edgeStyle=orthogonalEdgeStyle;dashed=0;startArrow=block;startSize=12;endArrow=none;strokeColor=#595959;exitX=0.500;exitY=1.001;exitDx=0;exitDy=0;entryX=0.500;entryY=0.000;entryDx=0;entryDy=0;">
      <mxGeometry width="50" height="50" relative="1" as="geometry">
        <Array as="points">
          <mxPoint x="981" y="1132" />
          <mxPoint x="2879" y="1132" />
          <mxPoint x="2879" y="932" />
          <mxPoint x="2943" y="932" />
          <mxPoint x="2943" y="864" />
          <mxPoint x="3158" y="864" />
          <mxPoint x="3158" y="-35" />
          <mxPoint x="2348" y="-35" />
        </Array>
      </mxGeometry>
    </mxCell>
    <mxCell id="edge20" edge="1" value="" parent="1" source="node8" target="node25" style="html=1;rounded=1;edgeStyle=orthogonalEdgeStyle;dashed=0;startArrow=block;startSize=12;endArrow=none;strokeColor=#595959;exitX=0.500;exitY=1.000;exitDx=0;exitDy=0;entryX=0.500;entryY=0.000;entryDx=0;entryDy=0;">
      <mxGeometry width="50" height="50" relative="1" as="geometry">
        <Array as="points">
          <mxPoint x="121" y="1132" />
          <mxPoint x="2879" y="1132" />
          <mxPoint x="2879" y="932" />
          <mxPoint x="2943" y="932" />
          <mxPoint x="2943" y="864" />
          <mxPoint x="3158" y="864" />
          <mxPoint x="3158" y="-35" />
          <mxPoint x="2348" y="-35" />
        </Array>
      </mxGeometry>
    </mxCell>
    <mxCell id="edge14" edge="1" value="" parent="1" source="node28" target="node1" style="html=1;rounded=1;edgeStyle=orthogonalEdgeStyle;dashed=0;startArrow=block;startSize=12;endArrow=none;strokeColor=#595959;exitX=0.000;exitY=0.185;exitDx=0;exitDy=0;entryX=1.000;entryY=0.500;entryDx=0;entryDy=0;">
      <mxGeometry width="50" height="50" relative="1" as="geometry">
        <Array as="points" />
      </mxGeometry>
    </mxCell>
    <mxCell id="edge5" edge="1" value="" parent="1" source="node28" target="node16" style="html=1;rounded=1;edgeStyle=orthogonalEdgeStyle;dashed=0;startArrow=block;startSize=12;endArrow=none;strokeColor=#595959;exitX=1.000;exitY=0.500;exitDx=0;exitDy=0;entryX=0.000;entryY=0.822;entryDx=0;entryDy=0;">
      <mxGeometry width="50" height="50" relative="1" as="geometry">
        <Array as="points" />
      </mxGeometry>
    </mxCell>
    <mxCell id="edge28" edge="1" value="" parent="1" source="node22" target="node25" style="html=1;rounded=1;edgeStyle=orthogonalEdgeStyle;dashed=0;startArrow=block;startSize=12;endArrow=none;strokeColor=#595959;exitX=0.500;exitY=0.001;exitDx=0;exitDy=0;entryX=0.500;entryY=0.000;entryDx=0;entryDy=0;">
      <mxGeometry width="50" height="50" relative="1" as="geometry">
        <Array as="points">
          <mxPoint x="4159" y="-35" />
          <mxPoint x="2348" y="-35" />
        </Array>
      </mxGeometry>
    </mxCell>
    <mxCell id="edge8" edge="1" value="" parent="1" source="node27" target="node25" style="html=1;rounded=1;edgeStyle=orthogonalEdgeStyle;dashed=0;startArrow=block;startSize=12;endArrow=none;strokeColor=#595959;exitX=0.707;exitY=1.000;exitDx=0;exitDy=0;entryX=0.500;entryY=0.000;entryDx=0;entryDy=0;">
      <mxGeometry width="50" height="50" relative="1" as="geometry">
        <Array as="points">
          <mxPoint x="2281" y="1132" />
          <mxPoint x="2879" y="1132" />
          <mxPoint x="2879" y="932" />
          <mxPoint x="2943" y="932" />
          <mxPoint x="2943" y="864" />
          <mxPoint x="3158" y="864" />
          <mxPoint x="3158" y="-35" />
          <mxPoint x="2348" y="-35" />
        </Array>
      </mxGeometry>
    </mxCell>
    <mxCell id="edge24" edge="1" value="" parent="1" source="node24" target="node19" style="html=1;rounded=1;edgeStyle=orthogonalEdgeStyle;dashed=0;startArrow=block;startSize=12;endArrow=none;strokeColor=#595959;exitX=1.000;exitY=0.500;exitDx=0;exitDy=0;entryX=0.744;entryY=1.000;entryDx=0;entryDy=0;">
      <mxGeometry width="50" height="50" relative="1" as="geometry">
        <Array as="points">
          <mxPoint x="3837" y="1123" />
          <mxPoint x="3837" y="1062" />
          <mxPoint x="3857" y="1062" />
        </Array>
      </mxGeometry>
    </mxCell>
    <mxCell id="edge25" edge="1" value="" parent="1" source="node12" target="node26" style="html=1;rounded=1;edgeStyle=orthogonalEdgeStyle;dashed=0;startArrow=block;startSize=12;endArrow=none;strokeColor=#595959;exitX=0.606;exitY=0.000;exitDx=0;exitDy=0;entryX=0.500;entryY=1.000;entryDx=0;entryDy=0;">
      <mxGeometry width="50" height="50" relative="1" as="geometry">
        <Array as="points" />
      </mxGeometry>
    </mxCell>
    <mxCell id="edge10" edge="1" value="" parent="1" source="node11" target="node10" style="html=1;rounded=1;edgeStyle=orthogonalEdgeStyle;dashed=0;startArrow=block;startSize=12;endArrow=none;strokeColor=#595959;exitX=0.963;exitY=1.000;exitDx=0;exitDy=0;entryX=0.500;entryY=1.000;entryDx=0;entryDy=0;">
      <mxGeometry width="50" height="50" relative="1" as="geometry">
        <Array as="points">
          <mxPoint x="2894" y="970" />
          <mxPoint x="3017" y="970" />
        </Array>
      </mxGeometry>
    </mxCell>
    <mxCell id="edge4" edge="1" value="" parent="1" source="node11" target="node25" style="html=1;rounded=1;edgeStyle=orthogonalEdgeStyle;dashed=0;startArrow=block;startSize=12;endArrow=none;strokeColor=#595959;exitX=1.000;exitY=0.500;exitDx=0;exitDy=0;entryX=0.500;entryY=0.000;entryDx=0;entryDy=0;">
      <mxGeometry width="50" height="50" relative="1" as="geometry">
        <Array as="points">
          <mxPoint x="2943" y="796" />
          <mxPoint x="2943" y="864" />
          <mxPoint x="3158" y="864" />
          <mxPoint x="3158" y="-35" />
          <mxPoint x="2348" y="-35" />
        </Array>
      </mxGeometry>
    </mxCell>
    <mxCell id="edge30" edge="1" value="" parent="1" source="node19" target="node10" style="html=1;rounded=1;edgeStyle=orthogonalEdgeStyle;dashed=0;startArrow=block;startSize=12;endArrow=none;strokeColor=#595959;exitX=0.500;exitY=1.000;exitDx=0;exitDy=0;entryX=0.500;entryY=1.000;entryDx=0;entryDy=0;">
      <mxGeometry width="50" height="50" relative="1" as="geometry">
        <Array as="points">
          <mxPoint x="3788" y="970" />
          <mxPoint x="3017" y="970" />
        </Array>
      </mxGeometry>
    </mxCell>
    <mxCell id="edge22" edge="1" value="" parent="1" source="node19" target="node25" style="html=1;rounded=1;edgeStyle=orthogonalEdgeStyle;dashed=0;startArrow=block;startSize=12;endArrow=none;strokeColor=#595959;exitX=0.500;exitY=0.000;exitDx=0;exitDy=0;entryX=0.500;entryY=0.000;entryDx=0;entryDy=0;">
      <mxGeometry width="50" height="50" relative="1" as="geometry">
        <Array as="points">
          <mxPoint x="3788" y="-35" />
          <mxPoint x="2348" y="-35" />
        </Array>
      </mxGeometry>
    </mxCell>
    <mxCell id="edge16" edge="1" value="" parent="1" source="node17" target="node10" style="html=1;rounded=1;edgeStyle=orthogonalEdgeStyle;dashed=0;startArrow=block;startSize=12;endArrow=none;strokeColor=#595959;exitX=0.500;exitY=1.000;exitDx=0;exitDy=0;entryX=0.500;entryY=1.000;entryDx=0;entryDy=0;">
      <mxGeometry width="50" height="50" relative="1" as="geometry">
        <Array as="points">
          <mxPoint x="4212" y="970" />
          <mxPoint x="3017" y="970" />
        </Array>
      </mxGeometry>
    </mxCell>
    <mxCell id="edge7" edge="1" value="" parent="1" source="node17" target="node25" style="html=1;rounded=1;edgeStyle=orthogonalEdgeStyle;dashed=0;startArrow=block;startSize=12;endArrow=none;strokeColor=#595959;exitX=0.000;exitY=0.500;exitDx=0;exitDy=0;entryX=0.500;entryY=0.000;entryDx=0;entryDy=0;">
      <mxGeometry width="50" height="50" relative="1" as="geometry">
        <Array as="points">
          <mxPoint x="3945" y="850" />
          <mxPoint x="3945" y="-35" />
          <mxPoint x="2348" y="-35" />
        </Array>
      </mxGeometry>
    </mxCell>
    <mxCell id="edge31" edge="1" value="" parent="1" source="node6" target="node10" style="html=1;rounded=1;edgeStyle=orthogonalEdgeStyle;dashed=0;startArrow=block;startSize=12;endArrow=none;strokeColor=#595959;exitX=0.444;exitY=1.000;exitDx=0;exitDy=0;entryX=0.500;entryY=1.000;entryDx=0;entryDy=0;">
      <mxGeometry width="50" height="50" relative="1" as="geometry">
        <Array as="points">
          <mxPoint x="2114" y="1194" />
          <mxPoint x="3346" y="1194" />
          <mxPoint x="3346" y="970" />
          <mxPoint x="3017" y="970" />
        </Array>
      </mxGeometry>
    </mxCell>
    <mxCell id="edge19" edge="1" value="" parent="1" source="node6" target="node25" style="html=1;rounded=1;edgeStyle=orthogonalEdgeStyle;dashed=0;startArrow=block;startSize=12;endArrow=none;strokeColor=#595959;exitX=0.500;exitY=1.000;exitDx=0;exitDy=0;entryX=0.500;entryY=0.000;entryDx=0;entryDy=0;">
      <mxGeometry width="50" height="50" relative="1" as="geometry">
        <Array as="points">
          <mxPoint x="2129" y="1132" />
          <mxPoint x="2879" y="1132" />
          <mxPoint x="2879" y="932" />
          <mxPoint x="2943" y="932" />
          <mxPoint x="2943" y="864" />
          <mxPoint x="3158" y="864" />
          <mxPoint x="3158" y="-35" />
          <mxPoint x="2348" y="-35" />
        </Array>
      </mxGeometry>
    </mxCell>
    <mxCell id="edge2" edge="1" value="" parent="1" source="node4" target="node10" style="html=1;rounded=1;edgeStyle=orthogonalEdgeStyle;dashed=0;startArrow=block;startSize=12;endArrow=none;strokeColor=#595959;exitX=0.500;exitY=0.000;exitDx=0;exitDy=0;entryX=0.500;entryY=1.000;entryDx=0;entryDy=0;">
      <mxGeometry width="50" height="50" relative="1" as="geometry">
        <Array as="points">
          <mxPoint x="3106" y="970" />
          <mxPoint x="3017" y="970" />
        </Array>
      </mxGeometry>
    </mxCell>
    <mxCell id="edge29" edge="1" value="" parent="1" source="node4" target="node25" style="html=1;rounded=1;edgeStyle=orthogonalEdgeStyle;dashed=0;startArrow=block;startSize=12;endArrow=none;strokeColor=#595959;exitX=0.000;exitY=0.469;exitDx=0;exitDy=0;entryX=0.500;entryY=0.000;entryDx=0;entryDy=0;">
      <mxGeometry width="50" height="50" relative="1" as="geometry">
        <Array as="points">
          <mxPoint x="2894" y="1113" />
          <mxPoint x="2894" y="1132" />
          <mxPoint x="2879" y="1132" />
          <mxPoint x="2879" y="932" />
          <mxPoint x="2943" y="932" />
          <mxPoint x="2943" y="864" />
          <mxPoint x="3158" y="864" />
          <mxPoint x="3158" y="-35" />
          <mxPoint x="2348" y="-35" />
        </Array>
      </mxGeometry>
    </mxCell>
    <mxCell id="edge1" edge="1" value="" parent="1" source="node3" target="node10" style="html=1;rounded=1;edgeStyle=orthogonalEdgeStyle;dashed=0;startArrow=block;startSize=12;endArrow=none;strokeColor=#595959;exitX=0.545;exitY=1.000;exitDx=0;exitDy=0;entryX=0.500;entryY=1.000;entryDx=0;entryDy=0;">
      <mxGeometry width="50" height="50" relative="1" as="geometry">
        <Array as="points">
          <mxPoint x="1782" y="1194" />
          <mxPoint x="3346" y="1194" />
          <mxPoint x="3346" y="970" />
          <mxPoint x="3017" y="970" />
        </Array>
      </mxGeometry>
    </mxCell>
    <mxCell id="edge12" edge="1" value="" parent="1" source="node3" target="node25" style="html=1;rounded=1;edgeStyle=orthogonalEdgeStyle;dashed=0;startArrow=block;startSize=12;endArrow=none;strokeColor=#595959;exitX=0.500;exitY=1.000;exitDx=0;exitDy=0;entryX=0.500;entryY=0.000;entryDx=0;entryDy=0;">
      <mxGeometry width="50" height="50" relative="1" as="geometry">
        <Array as="points">
          <mxPoint x="1767" y="1132" />
          <mxPoint x="2879" y="1132" />
          <mxPoint x="2879" y="932" />
          <mxPoint x="2943" y="932" />
          <mxPoint x="2943" y="864" />
          <mxPoint x="3158" y="864" />
          <mxPoint x="3158" y="-35" />
          <mxPoint x="2348" y="-35" />
        </Array>
      </mxGeometry>
    </mxCell>
    <mxCell id="edge0" edge="1" value="" parent="1" source="node21" target="node13" style="html=1;rounded=1;edgeStyle=orthogonalEdgeStyle;dashed=0;startArrow=block;startSize=12;endArrow=none;strokeColor=#595959;exitX=0.136;exitY=1.000;exitDx=0;exitDy=0;entryX=0.500;entryY=0.000;entryDx=0;entryDy=0;">
      <mxGeometry width="50" height="50" relative="1" as="geometry">
        <Array as="points" />
      </mxGeometry>
    </mxCell>
    <mxCell id="edge3" edge="1" value="" parent="1" source="node18" target="node11" style="html=1;rounded=1;edgeStyle=orthogonalEdgeStyle;dashed=0;startArrow=block;startSize=12;endArrow=none;strokeColor=#595959;exitX=0.779;exitY=0.000;exitDx=0;exitDy=0;entryX=0.500;entryY=1.000;entryDx=0;entryDy=0;">
      <mxGeometry width="50" height="50" relative="1" as="geometry">
        <Array as="points" />
      </mxGeometry>
    </mxCell>
    <mxCell id="edge6" edge="1" value="" parent="1" source="node9" target="node19" style="html=1;rounded=1;edgeStyle=orthogonalEdgeStyle;dashed=0;startArrow=block;startSize=12;endArrow=none;strokeColor=#595959;exitX=0.000;exitY=0.500;exitDx=0;exitDy=0;entryX=0.744;entryY=1.000;entryDx=0;entryDy=0;">
      <mxGeometry width="50" height="50" relative="1" as="geometry">
        <Array as="points">
          <mxPoint x="3857" y="1062" />
        </Array>
      </mxGeometry>
    </mxCell>
    <mxCell id="edge21" edge="1" value="" parent="1" source="node5" target="node25" style="html=1;rounded=1;edgeStyle=orthogonalEdgeStyle;dashed=0;startArrow=block;startSize=12;endArrow=none;strokeColor=#595959;exitX=1.000;exitY=0.500;exitDx=0;exitDy=0;entryX=0.500;entryY=0.000;entryDx=0;entryDy=0;">
      <mxGeometry width="50" height="50" relative="1" as="geometry">
        <Array as="points">
          <mxPoint x="3158" y="599" />
          <mxPoint x="3158" y="-35" />
          <mxPoint x="2348" y="-35" />
        </Array>
      </mxGeometry>
    </mxCell>
    <mxCell id="edge11" edge="1" value="" parent="1" source="node23" target="node25" style="html=1;rounded=1;edgeStyle=orthogonalEdgeStyle;dashed=0;startArrow=block;startSize=12;endArrow=none;strokeColor=#595959;exitX=0.000;exitY=0.500;exitDx=0;exitDy=0;entryX=0.500;entryY=0.000;entryDx=0;entryDy=0;">
      <mxGeometry width="50" height="50" relative="1" as="geometry">
        <Array as="points">
          <mxPoint x="3158" y="793" />
          <mxPoint x="3158" y="-35" />
          <mxPoint x="2348" y="-35" />
        </Array>
      </mxGeometry>
    </mxCell>
    <mxCell id="edge26" edge="1" value="" parent="1" source="node26" target="node25" style="html=1;rounded=1;edgeStyle=orthogonalEdgeStyle;dashed=0;startArrow=block;startSize=12;endArrow=none;strokeColor=#595959;exitX=0.957;exitY=1.000;exitDx=0;exitDy=0;entryX=0.500;entryY=0.000;entryDx=0;entryDy=0;">
      <mxGeometry width="50" height="50" relative="1" as="geometry">
        <Array as="points">
          <mxPoint x="788" y="1132" />
          <mxPoint x="2879" y="1132" />
          <mxPoint x="2879" y="932" />
          <mxPoint x="2943" y="932" />
          <mxPoint x="2943" y="864" />
          <mxPoint x="3158" y="864" />
          <mxPoint x="3158" y="-35" />
          <mxPoint x="2348" y="-35" />
        </Array>
      </mxGeometry>
    </mxCell>
    <mxCell id="edge33" edge="1" value="" parent="1" source="node16" target="node14" style="html=1;rounded=1;edgeStyle=orthogonalEdgeStyle;dashed=0;startArrow=block;startSize=12;endArrow=none;strokeColor=#595959;exitX=0.655;exitY=0.000;exitDx=0;exitDy=0;entryX=0.500;entryY=1.000;entryDx=0;entryDy=0;">
      <mxGeometry width="50" height="50" relative="1" as="geometry">
        <Array as="points" />
      </mxGeometry>
    </mxCell>
    <mxCell id="edge13" edge="1" value="" parent="1" source="node14" target="node25" style="html=1;rounded=1;edgeStyle=orthogonalEdgeStyle;dashed=0;startArrow=block;startSize=12;endArrow=none;strokeColor=#595959;exitX=0.845;exitY=1.000;exitDx=0;exitDy=0;entryX=0.500;entryY=0.000;entryDx=0;entryDy=0;">
      <mxGeometry width="50" height="50" relative="1" as="geometry">
        <Array as="points">
          <mxPoint x="1558" y="1132" />
          <mxPoint x="2879" y="1132" />
          <mxPoint x="2879" y="932" />
          <mxPoint x="2943" y="932" />
          <mxPoint x="2943" y="864" />
          <mxPoint x="3158" y="864" />
          <mxPoint x="3158" y="-35" />
          <mxPoint x="2348" y="-35" />
        </Array>
      </mxGeometry>
    </mxCell>
  </root>
</mxGraphModel>